<?xml version="1.0" encoding="utf-8"?>
<!-- Generator: Adobe Illustrator 20.0.0, SVG Export Plug-In . SVG Version: 6.00 Build 0)  -->
<svg version="1.1" id="Layer_1" xmlns="http://www.w3.org/2000/svg" xmlns:xlink="http://www.w3.org/1999/xlink" x="0px" y="0px"
	 viewBox="0 0 199.6 62.9" style="enable-background:new 0 0 199.6 62.9;" xml:space="preserve">
<style type="text/css">
	.st0{fill:#0E3D51;}
	.st1{fill:#EF3D31;}
	.st2{fill:#218591;}
	.st3{fill:#FCB124;}
</style>
<g>
	<g>
		<path class="st0" d="M41.5,31.6c0,3.9-1,6.9-2.9,9c-1.9,2.2-4.6,3.2-8.1,3.2c-2.1,0-4-0.5-5.7-1.5s-2.9-2.4-3.8-4.3
			c-0.9-1.9-1.3-4-1.3-6.5c0-3.8,1-6.8,2.9-9s4.6-3.2,8.1-3.2c3.3,0,6,1.1,7.9,3.3S41.5,27.8,41.5,31.6z M23.7,31.6
			c0,3,0.6,5.2,1.7,6.8c1.2,1.5,2.9,2.3,5.2,2.3c2.2,0,4-0.8,5.1-2.3s1.8-3.8,1.8-6.8s-0.6-5.2-1.8-6.7s-2.9-2.2-5.2-2.2
			C26,22.6,23.7,25.6,23.7,31.6z"/>
		<path class="st0" d="M48.9,43.4H45V10h3.9V43.4z"/>
		<path class="st0" d="M74.2,31.6c0,3.9-1,6.9-2.9,9c-1.9,2.2-4.6,3.2-8.1,3.2c-2.1,0-4-0.5-5.7-1.5s-2.9-2.4-3.8-4.3
			c-0.9-1.9-1.3-4-1.3-6.5c0-3.8,1-6.8,2.9-9s4.6-3.2,8.1-3.2c3.3,0,6,1.1,7.9,3.3C73.2,24.9,74.2,27.8,74.2,31.6z M56.4,31.6
			c0,3,0.6,5.2,1.7,6.8c1.2,1.5,2.9,2.3,5.2,2.3c2.2,0,4-0.8,5.1-2.3c1.2-1.5,1.8-3.8,1.8-6.8s-0.6-5.2-1.8-6.7
			c-1.2-1.5-2.9-2.2-5.2-2.2C58.7,22.6,56.4,25.6,56.4,31.6z"/>
		<path class="st0" d="M93.6,43.2l0.1-2.9h-0.2c-1.6,2.4-4,3.5-7.3,3.5c-3,0-5.4-1.1-7.1-3.2s-2.6-5.1-2.6-9c0-3.8,0.9-6.8,2.6-9
			c1.7-2.2,4.1-3.3,7.1-3.3c3.2,0,5.7,1.2,7.4,3.6h0.2l0.5-3.1h3.1v24c0,3.4-0.9,5.9-2.6,7.6s-4.4,2.6-8,2.6c-3.4,0-6.3-0.5-8.5-1.5
			v-3.6c2.3,1.2,5.2,1.8,8.7,1.8c2,0,3.6-0.6,4.8-1.8c1.2-1.2,1.7-2.8,1.7-4.9V43.2z M86.8,40.7c2.4,0,4.1-0.6,5.2-1.9
			c1.1-1.3,1.6-3.3,1.6-6.2v-0.9c0-3.1-0.5-5.4-1.6-6.9c-1.1-1.4-2.8-2.1-5.3-2.1c-2,0-3.5,0.8-4.6,2.4c-1.1,1.6-1.6,3.8-1.6,6.7
			c0,2.9,0.5,5.1,1.6,6.7S84.7,40.7,86.8,40.7z"/>
		<path class="st0" d="M101.8,13.5c0-0.9,0.2-1.5,0.7-1.9c0.4-0.4,1-0.6,1.6-0.6c0.6,0,1.1,0.2,1.6,0.6c0.5,0.4,0.7,1,0.7,1.9
			c0,0.8-0.2,1.5-0.7,1.9c-0.5,0.4-1,0.6-1.6,0.6c-0.6,0-1.2-0.2-1.6-0.6C102,14.9,101.8,14.3,101.8,13.5z"/>
		<rect x="102.1" y="19.8" class="st0" width="3.9" height="23.6"/>
		<path class="st0" d="M126.1,36.9c0,2.2-0.8,3.9-2.5,5.1c-1.6,1.2-4,1.8-6.9,1.8c-3.1,0-5.6-0.5-7.4-1.5v-3.5
			c2.6,1.3,5.1,1.9,7.5,1.9c1.9,0,3.4-0.3,4.3-0.9c0.9-0.6,1.3-1.5,1.3-2.5c0-0.9-0.4-1.7-1.3-2.4c-0.9-0.6-2.4-1.4-4.5-2.2
			c-2.2-0.9-3.8-1.6-4.7-2.2s-1.6-1.3-2-2.1s-0.6-1.7-0.6-2.8c0-1.9,0.8-3.5,2.4-4.6c1.6-1.1,3.7-1.7,6.5-1.7c2.7,0,5.2,0.5,7.5,1.6
			l-1.3,3.1c-2.4-1-4.5-1.5-6.5-1.5c-1.6,0-2.8,0.3-3.7,0.8c-0.8,0.5-1.2,1.2-1.2,2.1c0,0.9,0.4,1.6,1.1,2.1c0.7,0.6,2.4,1.3,5,2.4
			c2,0.7,3.4,1.4,4.3,2c0.9,0.6,1.6,1.3,2.1,2.1S126.1,35.8,126.1,36.9z"/>
		<path class="st0" d="M137.9,40.7c0.5,0,1.1-0.1,1.8-0.2s1.2-0.2,1.5-0.3v3c-0.4,0.2-0.9,0.3-1.7,0.5c-0.8,0.2-1.5,0.2-2.3,0.2
			c-4.6,0-6.9-2.4-6.9-7.3V22.8H127V21l3.4-1.5l1.5-5h2.3v5.4h6.8v3h-6.8v13.6c0,1.4,0.3,2.4,1,3.1S136.8,40.7,137.9,40.7z"/>
		<path class="st0" d="M143.1,13.5c0-0.9,0.2-1.5,0.7-1.9c0.4-0.4,1-0.6,1.6-0.6c0.6,0,1.1,0.2,1.6,0.6c0.5,0.4,0.7,1,0.7,1.9
			c0,0.8-0.2,1.5-0.7,1.9c-0.5,0.4-1,0.6-1.6,0.6c-0.6,0-1.2-0.2-1.6-0.6C143.3,14.9,143.1,14.3,143.1,13.5z"/>
		<rect x="143.4" y="19.8" class="st0" width="3.9" height="23.6"/>
		<path class="st0" d="M161.5,43.8c-3.4,0-6-1-7.9-3.1s-2.8-5.1-2.8-9c0-4,1-7,2.9-9.1c1.9-2.1,4.6-3.2,8.2-3.2
			c1.1,0,2.3,0.1,3.4,0.4c1.1,0.2,2.1,0.5,2.8,0.9l-1.2,3.2c-2-0.7-3.7-1.1-5.1-1.1c-2.4,0-4.1,0.7-5.3,2.2
			c-1.1,1.5-1.7,3.7-1.7,6.7c0,2.8,0.6,5,1.7,6.5c1.1,1.5,2.8,2.3,5,2.3c2.1,0,4.1-0.5,6.1-1.4v3.4
			C165.9,43.4,163.9,43.8,161.5,43.8z"/>
		<path class="st0" d="M186.3,36.9c0,2.2-0.8,3.9-2.5,5.1c-1.6,1.2-4,1.8-6.9,1.8c-3.1,0-5.6-0.5-7.4-1.5v-3.5
			c2.6,1.3,5.1,1.9,7.5,1.9c1.9,0,3.4-0.3,4.3-0.9c0.9-0.6,1.3-1.5,1.3-2.5c0-0.9-0.4-1.7-1.3-2.4c-0.9-0.6-2.4-1.4-4.5-2.2
			c-2.2-0.9-3.8-1.6-4.7-2.2s-1.6-1.3-2-2.1s-0.6-1.7-0.6-2.8c0-1.9,0.8-3.5,2.4-4.6c1.6-1.1,3.7-1.7,6.5-1.7c2.7,0,5.2,0.5,7.5,1.6
			l-1.3,3.1c-2.4-1-4.5-1.5-6.5-1.5c-1.6,0-2.8,0.3-3.6,0.8c-0.8,0.5-1.2,1.2-1.2,2.1c0,0.9,0.4,1.6,1.1,2.1s2.4,1.3,5,2.4
			c2,0.7,3.4,1.4,4.3,2c0.9,0.6,1.6,1.3,2.1,2.1S186.3,35.8,186.3,36.9z"/>
	</g>
	<g>
		<path class="st1" d="M199.3,32.2c0.4-0.4,0.4-1,0-1.4l-6.5-6.5c-0.4-0.4-0.7-0.3-0.7,0.3v13.7c0,0.5,0.3,0.7,0.7,0.3L199.3,32.2z"
			/>
	</g>
	<path class="st2" d="M8,31.5l-8-7.9C3.5,10,15.9,0,30.6,0l0,9C18.1,9,8,19,8,31.5L8,31.5z"/>
	<path class="st3" d="M8,31.5c0,12.4,10.1,22.4,22.6,22.4l0,9c-14.7,0-27-10-30.6-23.6L8,31.5L8,31.5z"/>
</g>
</svg>
