<?xml version="1.0" encoding="utf-8"?>
<!-- Generator: Adobe Illustrator 20.0.0, SVG Export Plug-In . SVG Version: 6.00 Build 0)  -->
<svg version="1.1" id="Capa_1" xmlns="http://www.w3.org/2000/svg" xmlns:xlink="http://www.w3.org/1999/xlink" x="0px" y="0px"
	 viewBox="0 0 609 149.7" style="enable-background:new 0 0 609 149.7;" xml:space="preserve">
<style type="text/css">
	.st0{fill:#0E3D51;}
</style>
<g>
	<path class="st0" d="M254.9,34v31.2h-12.5V36.5c0-13.9,7-20.9,21-20.9c6.3,0,11.1,1.4,14.6,4.2c3.5-2.7,8.3-4,14.6-4
		c13.9,0,20.9,6.9,20.8,20.9v28.7H307c-4.1-0.3-6.1-2.2-6.1-6.1V34.2c-0.3-5.1-3-7.6-8.5-7.6c-5.4,0-8.2,2.5-8.3,7.6v31h-12.4V34
		c-0.3-5.1-3-7.6-8.5-7.6C257.8,26.4,255,28.9,254.9,34z"/>
	<path class="st0" d="M373.6,40.2c0.4-15.8,8.2-24.6,24.5-24.6h3.7v12.7l-5.7,0.1c-6.8,0-10.1,4.4-10.1,11.5v25.4h-12.5V40.2z"/>
	<path class="st0" d="M470.6,30.9l-11.4,0c0.4-9.4,5.2-15.7,19.1-15.7c13.5,0,20.3,4.4,20.6,13.5v16.6c0,13.5-8.1,19.5-21.3,20.4
		c-11.7,0.9-19.9-4.5-19.9-15.3c0.3-11.7,8.8-14.9,21.1-16.1c5.3-0.6,7.9-2.2,7.9-4.9c-0.3-2.8-2.9-4.1-7.9-4.2
		C473.1,25.2,471.3,28.6,470.6,30.9z M487,44.7v-4c-2.9,1.2-6.2,1.7-9.8,2.4c-4.9,0.9-7.4,3.2-7.4,6.8c0.3,3.9,2.3,5.7,6.2,5.7
		C482.8,55.7,487,51.6,487,44.7z"/>
	<path class="st0" d="M551.6,0v44c0,14.7-7.7,22-22.9,21.9c-15.1-0.3-22.7-8.5-22.7-24.8c0-16.6,6.5-25.1,19.5-25.6
		c6.1,0,10.8,2.5,13.9,7.6V7.6l0-1.4C543.5,0.2,551.6,0,551.6,0z M518.6,40.6c-0.1,9.9,3.2,14.9,10.3,14.9c7,0,10.5-5,10.5-14.9
		c-0.3-9.4-3.7-14-10.3-14C522.4,26.6,519,31.2,518.6,40.6z"/>
	<path class="st0" d="M332.9,72.8h3.2v64.7h-12.3V80.7C323.8,78.9,327.6,72.8,332.9,72.8z"/>
	<path class="st0" d="M399.8,87.2c-6.1,0-10.7,2.5-13.9,7.6l0-21.9h-1.4l0,0c-6.1,0.1-9.3,3.3-10.9,6v-0.4v37.2
		c0,14.7,7.7,22,22.9,21.9c15.1-0.3,22.7-8.5,22.7-24.8C419.3,96.1,412.8,87.6,399.8,87.2z M396.2,127.1c-7,0-10.3-5-10.3-14.9
		c0.4-9.4,3.8-14,10.4-14c6.6,0,10.1,4.6,10.3,14C406.7,122.1,403.2,127.1,396.2,127.1z"/>
	<g>
		<path class="st0" d="M335.3,52.9c2,1.9,4.8,2.9,8.5,2.9c2.6,0,4.9-0.7,6.8-2c1.9-1.3,3.1-2.7,3.5-4.2h11.5
			c-1.8,5.7-4.7,9.8-8.5,12.2c-3.8,2.5-8.4,3.7-13.8,3.7c-3.7,0-7.1-0.6-10.1-1.8s-5.6-2.9-7.6-5.1c-2.1-2.2-3.7-4.8-4.8-7.9
			c-1.1-3.1-1.7-6.4-1.7-10.1c0-3.6,0.6-6.9,1.7-9.9c1.2-3.1,2.8-5.7,5-8c2.1-2.2,4.7-4,7.7-5.3c3-1.3,6.3-1.9,9.9-1.9
			c4.1,0,7.6,0.8,10.6,2.3c3,1.6,5.5,3.7,7.4,6.3c1.9,2.6,3.3,5.6,4.2,9c0.9,3.4,1.2,6.9,0.9,10.6h-34.3
			C332.3,47.9,333.3,51,335.3,52.9z M350.1,27.9c-1.6-1.7-3.9-2.6-7.1-2.6c-2.1,0-3.8,0.4-5.2,1.1c-1.4,0.7-2.5,1.6-3.3,2.6
			c-0.8,1-1.4,2.1-1.8,3.3c-0.3,1.2-0.5,2.2-0.6,3.1h21.3C352.7,32.1,351.6,29.6,350.1,27.9z"/>
	</g>
	<g>
		<path class="st0" d="M429.5,25.1c-2.1,0-3.9,0.5-5.3,1.4c-1.4,1-2.6,2.2-3.5,3.7c-0.9,1.5-1.5,3.2-1.9,5c-0.4,1.8-0.6,3.6-0.6,5.4
			c0,1.7,0.2,3.5,0.6,5.3c0.4,1.8,1,3.4,1.8,4.9c0.8,1.5,2,2.7,3.4,3.6c1.4,0.9,3.2,1.4,5.2,1.4c3.2,0,5.6-0.9,7.3-2.7
			c1.7-1.8,2.8-4.1,3.2-7.1h12.7c-0.9,6.4-3.3,11.3-7.4,14.6c-4.1,3.3-9.3,5-15.7,5c-3.6,0-6.9-0.6-9.9-1.8c-3-1.2-5.6-2.9-7.7-5.1
			c-2.1-2.2-3.8-4.8-4.9-7.8c-1.2-3-1.8-6.3-1.8-9.9c0-3.7,0.5-7.2,1.6-10.4c1.1-3.2,2.7-6,4.8-8.3c2.1-2.3,4.7-4.1,7.7-5.4
			c3-1.3,6.5-2,10.4-2c2.9,0,5.6,0.4,8.2,1.1c2.6,0.7,5,1.9,7.1,3.4c2.1,1.5,3.8,3.4,5.1,5.7c1.3,2.3,2,4.9,2.2,8h-12.9
			C438.4,27.9,435.1,25.1,429.5,25.1z"/>
	</g>
	<g>
		<path class="st0" d="M561,30.1c1.2-3.1,2.9-5.8,5-8c2.2-2.2,4.8-3.9,7.8-5.1c3-1.2,6.4-1.8,10.2-1.8c3.8,0,7.2,0.6,10.3,1.8
			c3.1,1.2,5.7,2.9,7.9,5.1c2.2,2.2,3.8,4.9,5,8c1.2,3.1,1.8,6.6,1.8,10.5c0,3.8-0.6,7.3-1.8,10.4c-1.2,3.1-2.9,5.8-5,8
			c-2.2,2.2-4.8,3.9-7.9,5.1c-3.1,1.2-6.5,1.8-10.3,1.8c-3.8,0-7.2-0.6-10.2-1.8c-3-1.2-5.6-2.9-7.8-5.1c-2.2-2.2-3.8-4.9-5-8
			c-1.2-3.1-1.8-6.6-1.8-10.4C559.3,36.7,559.9,33.2,561,30.1z M573,46.2c0.4,1.8,1,3.5,1.9,4.9c0.9,1.5,2.1,2.6,3.6,3.5
			c1.5,0.9,3.3,1.3,5.6,1.3c2.2,0,4.1-0.4,5.6-1.3c1.5-0.9,2.7-2,3.6-3.5c0.9-1.5,1.5-3.1,1.9-4.9c0.4-1.8,0.6-3.7,0.6-5.6
			c0-1.9-0.2-3.8-0.6-5.7c-0.4-1.9-1-3.5-1.9-4.9c-0.9-1.4-2.1-2.6-3.6-3.5c-1.5-0.9-3.4-1.3-5.6-1.3c-2.2,0-4.1,0.5-5.6,1.3
			c-1.5,0.9-2.7,2.1-3.6,3.5c-0.9,1.4-1.5,3.1-1.9,4.9c-0.4,1.9-0.6,3.8-0.6,5.7C572.5,42.5,572.7,44.4,573,46.2z"/>
	</g>
	<path class="st0" d="M426.5,112.2c0.4-15.8,8.2-24.6,24.5-24.6h3.7v12.7l-5.7,0.1c-6.8,0-10.1,4.4-10.1,11.5v25.4h-12.5V112.2z"/>
	<g>
		<path class="st0" d="M474.2,124.9c2,1.9,4.8,2.9,8.5,2.9c2.6,0,4.9-0.7,6.8-2c1.9-1.3,3.1-2.7,3.5-4.2h11.5
			c-1.8,5.7-4.7,9.8-8.5,12.2c-3.8,2.5-8.4,3.7-13.8,3.7c-3.7,0-7.1-0.6-10.1-1.8c-3-1.2-5.6-2.9-7.6-5.1c-2.1-2.2-3.7-4.8-4.8-7.9
			c-1.1-3.1-1.7-6.4-1.7-10.1c0-3.6,0.6-6.9,1.7-9.9c1.2-3.1,2.8-5.7,5-8c2.1-2.2,4.7-4,7.7-5.3c3-1.3,6.3-1.9,9.9-1.9
			c4.1,0,7.6,0.8,10.6,2.3c3,1.6,5.5,3.7,7.4,6.3c1.9,2.6,3.3,5.6,4.2,9c0.9,3.4,1.2,6.9,0.9,10.6h-34.3
			C471.1,119.9,472.2,123,474.2,124.9z M488.9,99.9c-1.6-1.7-3.9-2.6-7.1-2.6c-2.1,0-3.8,0.4-5.2,1.1c-1.4,0.7-2.5,1.6-3.3,2.6
			c-0.8,1-1.4,2.1-1.8,3.3c-0.3,1.2-0.5,2.2-0.6,3.1h21.3C491.6,104.1,490.5,101.6,488.9,99.9z"/>
	</g>
	<rect x="349.3" y="72.8" class="st0" width="12.3" height="11.2"/>
	<rect x="349.3" y="89.6" class="st0" width="12.3" height="47.9"/>
	<path class="st0" d="M106.1,2.8C47.5,2.8,0,34,0,72.2c0,1,0,3.7,0,4.1c0,40.6,41.5,73.4,106.1,73.4c65,0,106.1-32.8,106.1-73.4
		c0-1.4,0-2.2,0-4.1C212.2,34,164.7,2.8,106.1,2.8z M207.5,64.5c-23.1,5.1-40.3,12.6-44.6,14.5c-10.1-8.8-33.3-29-39.6-33.7
		c-3.6-2.7-6.1-4.1-8.2-4.8c-1-0.3-2.3-0.6-4-0.6c-1.6,0-3.3,0.3-5.1,0.9c-4.1,1.3-8.1,4.5-12.1,7.6l-0.2,0.2
		c-3.7,2.9-7.4,5.9-10.3,6.5c-1.2,0.3-2.5,0.4-3.8,0.4c-3.2,0-6.1-0.9-7.2-2.3c-0.2-0.2-0.1-0.6,0.4-1.1l0.1-0.1l8.9-9.5
		c6.9-6.9,13.5-13.5,28.6-13.8c0.3,0,0.5,0,0.8,0c9.4,0,18.8,4.2,19.8,4.7c8.8,4.3,17.9,6.5,27,6.5c9.5,0,19.3-2.4,29.7-7.1
		c0,0-0.1,0-0.1,0C198.1,41.8,205.3,52.7,207.5,64.5z M5.1,63.5c2.5-12.1,10.2-23.1,21.6-32.2c0,0-0.1,0-0.1,0
		c13,5.3,28.7,9.4,33.7,9.7c1.4,0.1,2.9,0.2,4.3,0.3c3.3,0,6.6-0.9,9.8-1.8c1.9-0.5,4-1.1,6.1-1.5c-0.6,0.6-1.2,1.2-1.7,1.7l-9,9.7
		c-0.7,0.7-2.2,2.6-1.2,5c0.4,0.9,1.2,1.9,2.4,2.6c2.1,1.4,6,2.4,9.6,2.4c1.4,0,2.6-0.1,3.8-0.4c3.8-0.8,7.7-4,11.9-7.3
		c3.3-2.7,8.1-6,11.7-7c1-0.3,2.3-0.4,3.3-0.4c0.3,0,0.6,0,0.8,0c2.4,0.3,4.7,1.1,8.9,4.2c7.4,5.5,40.1,34.1,40.4,34.4
		c0,0,2.1,1.8,2,4.8c-0.1,1.7-1,3.1-2.6,4.2c-1.4,0.9-2.8,1.3-4.3,1.3c-2.2,0-3.7-1-3.8-1.1c-0.1-0.1-11.3-10.4-15.4-13.8
		c-0.7-0.5-1.3-1-1.9-1c-0.3,0-0.6,0.1-0.9,0.4c-0.6,0.8,0.1,1.9,0.9,2.6l13.1,13.1c0,0,1.6,1.5,1.8,3.5c0.1,2.2-0.9,4-3.1,5.4
		c-1.5,1-3.1,1.5-4.6,1.5c-2,0-3.4-0.9-3.7-1.1l-1.9-1.8c-3.4-3.4-7-6.9-9.6-9c-0.6-0.5-1.3-1-2-1c-0.3,0-0.6,0.1-0.8,0.3
		c-0.3,0.3-0.5,0.9,0.2,1.9c0.3,0.4,0.7,0.7,0.7,0.7l9.5,10.7c0.1,0.1,2,2.3,0.2,4.6l-0.3,0.4c-0.3,0.3-0.6,0.6-0.9,0.9
		c-1.6,1.3-3.8,1.5-4.7,1.5c-0.5,0-0.9,0-1.3-0.1c-0.9-0.2-1.6-0.4-1.9-0.8l-0.1-0.1c-0.5-0.5-5.3-5.5-9.3-8.8c-0.5-0.4-1.2-1-1.9-1
		c-0.3,0-0.6,0.1-0.9,0.4c-0.8,0.9,0.4,2.2,0.9,2.6l8.1,9c0,0.1-0.1,0.3-0.3,0.6c-0.3,0.4-1.3,1.4-4.2,1.8c-0.4,0-0.7,0.1-1.1,0.1
		c-3,0-6.3-1.5-8-2.4c0.8-1.6,1.2-3.4,1.2-5.2c0-6.7-5.4-12.1-12.1-12.2c-0.1,0-0.3,0-0.4,0c0.2-3.1-0.2-8.9-6.2-11.4
		c-1.7-0.7-3.4-1.1-5.1-1.1c-1.3,0-2.5,0.2-3.7,0.7c-1.2-2.4-3.3-4.1-5.9-5c-1.5-0.5-2.9-0.8-4.4-0.8c-2.5,0-4.8,0.7-6.8,2.2
		c-1.9-2.4-4.9-3.9-8-3.9c-2.7,0-5.3,1.1-7.3,3C48,77.6,38,71.2,11.1,65.1C9.8,64.8,6.8,64,5,63.5C5,63.5,5,63.5,5.1,63.5z
		 M90,108.4c0-0.4-0.1-1.4-0.9-1.4c-0.4,0-0.7,0.2-1,0.5c-1,0.9-2.2,1.8-4.1,1.8c-0.8,0-1.7-0.2-2.7-0.6c-4.7-1.9-4.8-5.2-4.6-6.5
		c0.1-0.4,0.1-0.7-0.2-1l-0.3-0.3h-0.3c-0.2,0-0.5,0.1-0.8,0.3c-1.4,1-2.7,1.4-4,1.4c-0.7,0-1.5-0.1-2.2-0.4
		c-6.2-2.4-5.7-8.3-5.4-10.1c0-0.4,0-0.6-0.3-0.8l-0.4-0.4l-0.4,0.4c-1.2,1.2-2.8,1.8-4.5,1.8c-3.6,0-6.5-2.9-6.5-6.5
		c0-3.6,2.9-6.5,6.5-6.5c3.2,0,6,2.4,6.4,5.7l0.2,1.7l1-1.5c0.1-0.2,2.7-4.1,7.5-4.1c0.9,0,1.9,0.1,2.8,0.4c3.8,1.2,4.5,4.6,4.6,6.1
		c0.1,0.8,0.7,0.9,0.8,0.9c0.3,0,0.6-0.2,0.7-0.4c0.7-0.8,2.3-2,4.8-2c1.1,0,2.3,0.3,3.6,0.8c6.1,2.6,3.3,10.4,3.3,10.4
		c-0.5,1.3-0.5,1.8-0.1,2.2l0.2,0.1h0.2c0.3,0,0.6-0.1,1.2-0.3c0.8-0.3,2.1-0.7,3.3-0.7h0c4.6,0.1,8.3,3.8,8.3,8.3
		c0,4.6-3.7,8.3-8.3,8.3C93.8,116.4,90.2,112.9,90,108.4z"/>
</g>
</svg>
