<?xml version="1.0" encoding="utf-8"?>
<!-- Generator: Adobe Illustrator 20.0.0, SVG Export Plug-In . SVG Version: 6.00 Build 0)  -->
<svg version="1.1" id="Layer_1" xmlns="http://www.w3.org/2000/svg" xmlns:xlink="http://www.w3.org/1999/xlink" x="0px" y="0px"
	 viewBox="0 0 564.5 99.9" style="enable-background:new 0 0 564.5 99.9;" xml:space="preserve">
<style type="text/css">
	.st0{fill:#0E3D51;}
</style>
<g id="Calque_1">
</g>
<g>
	<path id="XMLID_341_" class="st0" d="M111.8,53.1c-0.1-0.4-0.1-1.1-0.1-2c0-5.8,1.9-10.4,5.8-13.7s8.2-4.9,12.9-4.9
		c6.2,0,10.5,2.3,12.9,7L111.8,53.1z M156.9,44.8c-0.1-6.9-2.7-12.5-7.8-16.8s-11.6-6.5-19.3-6.5c-4.9,0-9.6,1.1-14,3.3
		s-8.1,5.6-11.1,10.1c-3,4.6-4.5,9.9-4.5,16c0,8.8,2.9,15.8,8.7,21.1c5.8,5.3,12.7,8,20.7,8c9.2,0,17.2-3.5,23.9-10.5l-7-7.8
		c-4.1,5-9.4,7.5-15.8,7.5c-6.4,0-11.4-2.3-15.1-6.8L157,45L156.9,44.8z"/>
	<path id="XMLID_189_" class="st0" d="M86.5,25c-3.3,2.3-5.9,5.2-7.9,8.8V22.3h-12v56.8h12V54.8c0-6.5,1.5-11.6,4.5-15.5
		c3-3.8,7.4-5.8,13.3-5.8H97l-0.1-12.1C93.3,21.6,89.8,22.7,86.5,25"/>
	<path id="XMLID_188_" class="st0" d="M199.8,50.2c-1.9-1.3-3.7-2.3-5.4-3s-3.4-1.4-5.2-1.9c-1.8-0.6-3.8-1.1-6.1-1.7
		c-2.3-0.6-4.1-1.2-5.4-1.8c-1.9-0.9-2.8-2.2-2.8-4.1c0-2.1,0.9-3.6,2.7-4.6s4.1-1.5,6.9-1.5c5.4,0,10.4,1.5,15.1,4.6l4.5-8.9
		c-5.8-3.8-12-5.8-18.6-5.8s-11.9,1.6-16,4.8s-6.1,7.4-6.1,12.7c0,7.5,5.9,12.8,17.7,16c0.3,0.1,0.7,0.2,1.3,0.4
		c7.5,2.3,11.3,4.8,11.3,7.7c0,1.9-0.8,3.5-2.4,4.8c-1.6,1.2-3.7,1.9-6.4,1.9c-6.2,0-12.6-2.5-19.2-7.5l-5.8,9.3
		c3.4,2.7,7.4,4.8,11.8,6.3c4.5,1.5,8.7,2.2,12.9,2.2c6.1,0,11.1-1.6,15.1-4.9c3.9-3.2,5.9-7.6,5.9-13S203.6,52.8,199.8,50.2"/>
	<path id="XMLID_336_" class="st0" d="M41.5,41.8c-2.5,2.7-7.3,4-14.3,4H12.6V15.9h12.8c6.8,0,11.9,1.1,15.1,3.2
		c3.2,2.1,4.8,5.8,4.8,10.9C45.3,35.2,44,39.2,41.5,41.8 M50.4,11c-5.2-4.3-13.5-6.5-24.8-6.5H0v74.7h12.6V57.3h13.2
		c11,0,19.1-2.1,24.4-6.3s8-10.8,8-19.9C58.2,22.1,55.6,15.4,50.4,11"/>
	<path id="XMLID_185_" class="st0" d="M233.5,69.7c-2.6,0-4.6-0.8-6-2.4s-2.1-3.8-2.1-6.5V32h15v-9.6h-15V4.5h-12v56
		c0,6,1.8,10.7,5.4,14.3c3.6,3.5,7.9,5.3,13,5.3s9.7-1.9,13.9-5.7l-4.9-8.4C238.6,68.4,236.1,69.7,233.5,69.7"/>
	<path id="XMLID_332_" class="st0" d="M288.3,64.3c-3.3,3.5-7.3,5.2-12,5.2s-8.8-1.7-12.3-5.1s-5.2-7.9-5.2-13.3s1.7-10,5.1-13.6
		c3.4-3.6,7.5-5.4,12.3-5.4s8.8,1.8,12.1,5.4c3.3,3.6,4.9,8.2,4.9,13.6C293.2,56.4,291.6,60.8,288.3,64.3 M293,32.2
		c-4.8-7.1-11-10.7-18.5-10.7s-14,2.6-19.4,7.9c-5.5,5.3-8.2,12.3-8.2,21.1s2.7,16,8,21.4s11.6,8.1,18.8,8.1c3.6,0,7.1-0.9,10.6-2.6
		s6.4-4.3,8.7-7.5v9.3h12V22.3h-12V32.2L293,32.2z"/>
	<path id="XMLID_329_" class="st0" d="M482.2,64.2c-3.4,3.5-7.7,5.2-12.9,5.2c-5.2,0-9.5-1.7-12.9-5.2s-5.1-7.9-5.1-13.4
		s1.7-9.9,5.1-13.4s7.7-5.2,12.9-5.2c5.2,0,9.5,1.7,12.9,5.2s5.1,7.9,5.1,13.4S485.6,60.7,482.2,64.2 M469.4,21.5
		c-8.5,0-15.7,2.8-21.4,8.5c-5.7,5.7-8.5,12.6-8.5,20.8s2.8,15.1,8.5,20.8s12.8,8.5,21.4,8.5s15.7-2.8,21.4-8.5
		c5.7-5.7,8.5-12.6,8.5-20.8s-2.8-15.1-8.5-20.8C485,24.3,477.9,21.5,469.4,21.5"/>
	<path id="XMLID_326_" class="st0" d="M547.2,64.2c-3.5,3.4-7.6,5.1-12.3,5.1s-8.7-1.7-12-5.2s-4.9-7.9-4.9-13.3s1.6-9.9,4.9-13.5
		c3.3-3.6,7.3-5.4,12.1-5.4s8.9,1.8,12.3,5.4c3.4,3.6,5.1,8.1,5.1,13.6C552.4,56.4,550.7,60.8,547.2,64.2 M556.3,29.4
		c-5.4-5.3-11.9-7.9-19.5-7.9s-13.8,3.6-18.5,10.8v-9.9h-12v77.5h12V70.6c5.7,6.3,12.1,9.4,19.3,9.4s13.4-2.7,18.8-8.2
		c5.4-5.5,8.1-12.6,8.1-21.4S561.7,34.7,556.3,29.4"/>
	<path id="XMLID_178_" class="st0" d="M411.6,21.5c-4,0-7.7,1-11.2,3s-6,4.7-7.7,8.2V0h-12v79.1h12V48.4c0-5.3,1.5-9.3,4.6-12
		s6.7-4.1,10.8-4.1c8.7,0,13,5.2,13,15.7v31.2h12V44.3c0-7.4-2-13.1-5.9-17C423.2,23.4,418,21.5,411.6,21.5"/>
	<path id="XMLID_177_" class="st0" d="M366.5,43.3c-3.9-3.3-9.6-5.9-17.3-7.8c-7.7-1.8-12.7-3.6-15-5.2s-3.5-3.9-3.5-6.9
		s1.2-5.3,3.5-6.8s5.4-2.2,9-2.2c3.7,0,7.4,0.6,11.2,1.9c3.8,1.3,6.8,2.9,9,4.9l6.7-9.5c-3.4-2.8-7.5-5.1-12.2-6.6
		c-4.7-1.6-9.4-2.4-14.2-2.4c-7.4,0-13.6,1.9-18.6,5.6s-7.5,9.1-7.5,16s2.2,12,6.6,15.4c2.2,1.8,4.7,3.2,7.6,4.3
		c2.8,1.1,7,2.3,12.5,3.6s9.3,2.8,11.6,4.4c2.2,1.6,3.4,3.8,3.4,6.7s-1.2,5.2-3.6,6.9c-2.4,1.7-5.6,2.6-9.7,2.6
		c-8.1,0-15.9-3.3-23.5-9.8l-7.9,9.5c9,8,19.4,12.1,31.1,12.1c8,0,14.4-2,19.3-6.1s7.4-9.3,7.4-15.9
		C372.3,51.5,370.3,46.6,366.5,43.3"/>
</g>
</svg>
